#Comment line ignore any data following # character 
#Hierarchical Translation and Rotation (.htr) file 
[Header]	
#Header keywords are followed by a single value 
FileType HTR		#Single word string
DataType HTRS		#Translation followed by rotation and scale data
FileVersion 1		#integer
NumSegments 84		#integer
NumFrames 2		#integer
DataFrameRate 30		#integer, data frame rate in this file
EulerRotationOrder ZYX
CalibrationUnits mm
RotationUnits Degrees
GlobalAxisofGravity Y
BoneLengthAxis Y
ScaleFactor 1.00
[SegmentNames&Hierarchy]
#CHILD	PARENT
MASTER GLOBAL
root MASTER
chest root
L_mid_tent01 root
R_mid_tent01 root
spine01 root
Bip01_Neck chest
L_humerus chest
R_humerus chest
weapon_bone chest
Bip01_Head Bip01_Neck
eye_left_bone Bip01_Head
eye_right_bone Bip01_Head
L_forearm L_humerus
L_front_hand L_forearm
L_weapon_bone L_forearm
L_front_hand01_01 L_front_hand
L_front_hand02_01 L_front_hand
L_front_hand03_01 L_front_hand
L_front_hand01_02 L_front_hand01_01
L_front_hand02_02 L_front_hand02_01
L_front_hand03_02 L_front_hand03_01
R_forearm R_humerus
R_front_hand R_forearm
R_weapon_bone R_forearm
R_front_hand01_01 R_front_hand
R_front_hand02_01 R_front_hand
R_front_hand03_01 R_front_hand
R_front_hand01_02 R_front_hand01_01
R_front_hand02_02 R_front_hand02_01
R_front_hand03_02 R_front_hand03_01
null_rope01_connect L_mid_tent01
Rope1_Seg01 null_rope01_connect
Rope1_Seg02 Rope1_Seg01
Rope1_Seg03 Rope1_Seg02
Rope1_Seg04 Rope1_Seg03
Rope1_Seg05 Rope1_Seg04
Rope1_Seg06 Rope1_Seg05
Rope1_Seg07 Rope1_Seg06
Rope1_Seg09 Rope1_Seg07
L_mid_hand01 Rope1_Seg09
L_mid_hand02 Rope1_Seg09
L_mid_hand03 Rope1_Seg09
null_rope02_connect R_mid_tent01
Rope2_Seg01 null_rope02_connect
Rope2_Seg02 Rope2_Seg01
Rope2_Seg03 Rope2_Seg02
Rope2_Seg04 Rope2_Seg03
Rope2_Seg05 Rope2_Seg04
Rope2_Seg06 Rope2_Seg05
Rope2_Seg07 Rope2_Seg06
Rope2_Seg09 Rope2_Seg07
R_mid_hand01 Rope2_Seg09
R_mid_hand02 Rope2_Seg09
R_mid_hand03 Rope2_Seg09
spine02 spine01
spine03 spine02
pelvis spine03
null_rope03_connect pelvis
null_rope04_connect pelvis
Rope3_Seg01 null_rope03_connect
Rope3_Seg02 Rope3_Seg01
Rope3_Seg03 Rope3_Seg02
Rope3_Seg04 Rope3_Seg03
Rope3_Seg05 Rope3_Seg04
Rope3_Seg06 Rope3_Seg05
Rope3_Seg07 Rope3_Seg06
Rope3_Seg08 Rope3_Seg07
Rope3_Seg09 Rope3_Seg08
R_rear_hand01 Rope3_Seg09
R_rear_hand02 Rope3_Seg09
R_rear_hand03 Rope3_Seg09
Rope4_Seg01 null_rope04_connect
Rope4_Seg02 Rope4_Seg01
Rope4_Seg03 Rope4_Seg02
Rope4_Seg04 Rope4_Seg03
Rope4_Seg05 Rope4_Seg04
Rope4_Seg06 Rope4_Seg05
Rope4_Seg07 Rope4_Seg06
Rope4_Seg08 Rope4_Seg07
Rope4_Seg09 Rope4_Seg08
L_rear_hand01 Rope4_Seg09
L_rear_hand02 Rope4_Seg09
L_rear_hand03 Rope4_Seg09
[BasePosition]
#SegmentName Tx, Ty, Tz, Rx, Ry, Rz, BoneLength
MASTER 0.000000 0.000000 0.000000 -90.000000 0.000000 0.000000 10.000000 
root 0.000000 0.000000 0.000000 0.000000 0.000000 0.000000 10.000000 
chest 0.000000 0.000000 0.000000 0.000000 0.000000 0.000000 10.000000 
L_mid_tent01 0.000000 0.000000 0.000000 0.000000 0.000000 0.000000 10.000000 
R_mid_tent01 0.000000 0.000000 0.000000 0.000000 0.000000 0.000000 10.000000 
spine01 0.000000 0.000000 0.000000 0.000000 0.000000 0.000000 10.000000 
Bip01_Neck 0.000000 0.000000 0.000000 0.000000 0.000000 0.000000 10.000000 
L_humerus 0.000000 0.000000 0.000000 0.000000 0.000000 0.000000 10.000000 
R_humerus 0.000000 0.000000 0.000000 0.000000 0.000000 0.000000 10.000000 
weapon_bone 0.000000 0.000000 0.000000 0.000000 0.000000 0.000000 10.000000 
Bip01_Head 0.000000 0.000000 0.000000 0.000000 0.000000 0.000000 10.000000 
eye_left_bone 0.000000 0.000000 0.000000 0.000000 0.000000 0.000000 10.000000 
eye_right_bone 0.000000 0.000000 0.000000 0.000000 0.000000 0.000000 10.000000 
L_forearm 0.000000 0.000000 0.000000 0.000000 0.000000 0.000000 10.000000 
L_front_hand 0.000000 0.000000 0.000000 0.000000 0.000000 0.000000 10.000000 
L_weapon_bone 0.000000 0.000000 0.000000 0.000000 0.000000 0.000000 10.000000 
L_front_hand01_01 0.000000 0.000000 0.000000 0.000000 0.000000 0.000000 10.000000 
L_front_hand02_01 0.000000 0.000000 0.000000 0.000000 0.000000 0.000000 10.000000 
L_front_hand03_01 0.000000 0.000000 0.000000 0.000000 0.000000 0.000000 10.000000 
L_front_hand01_02 0.000000 0.000000 0.000000 0.000000 0.000000 0.000000 10.000000 
L_front_hand02_02 0.000000 0.000000 0.000000 0.000000 0.000000 0.000000 10.000000 
L_front_hand03_02 0.000000 0.000000 0.000000 0.000000 0.000000 0.000000 10.000000 
R_forearm 0.000000 0.000000 0.000000 0.000000 0.000000 0.000000 10.000000 
R_front_hand 0.000000 0.000000 0.000000 0.000000 0.000000 0.000000 10.000000 
R_weapon_bone 0.000000 0.000000 0.000000 0.000000 0.000000 0.000000 10.000000 
R_front_hand01_01 0.000000 0.000000 0.000000 0.000000 0.000000 0.000000 10.000000 
R_front_hand02_01 0.000000 0.000000 0.000000 0.000000 0.000000 0.000000 10.000000 
R_front_hand03_01 0.000000 0.000000 0.000000 0.000000 0.000000 0.000000 10.000000 
R_front_hand01_02 0.000000 0.000000 0.000000 0.000000 0.000000 0.000000 10.000000 
R_front_hand02_02 0.000000 0.000000 0.000000 0.000000 0.000000 0.000000 10.000000 
R_front_hand03_02 0.000000 0.000000 0.000000 0.000000 0.000000 0.000000 10.000000 
null_rope01_connect 0.000000 0.000000 0.000000 0.000000 0.000000 0.000000 10.000000 
Rope1_Seg01 0.000000 0.000000 0.000000 0.000000 0.000000 0.000000 10.000000 
Rope1_Seg02 0.000000 0.000000 0.000000 0.000000 0.000000 0.000000 10.000000 
Rope1_Seg03 0.000000 0.000000 0.000000 0.000000 0.000000 0.000000 10.000000 
Rope1_Seg04 0.000000 0.000000 0.000000 0.000000 0.000000 0.000000 10.000000 
Rope1_Seg05 0.000000 0.000000 0.000000 0.000000 0.000000 0.000000 10.000000 
Rope1_Seg06 0.000000 0.000000 0.000000 0.000000 0.000000 0.000000 10.000000 
Rope1_Seg07 0.000000 0.000000 0.000000 0.000000 0.000000 0.000000 10.000000 
Rope1_Seg09 0.000000 0.000000 0.000000 0.000000 0.000000 0.000000 10.000000 
L_mid_hand01 0.000000 0.000000 0.000000 0.000000 0.000000 0.000000 10.000000 
L_mid_hand02 0.000000 0.000000 0.000000 0.000000 0.000000 0.000000 10.000000 
L_mid_hand03 0.000000 0.000000 0.000000 0.000000 0.000000 0.000000 10.000000 
null_rope02_connect 0.000000 0.000000 0.000000 0.000000 0.000000 0.000000 10.000000 
Rope2_Seg01 0.000000 0.000000 0.000000 0.000000 0.000000 0.000000 10.000000 
Rope2_Seg02 0.000000 0.000000 0.000000 0.000000 0.000000 0.000000 10.000000 
Rope2_Seg03 0.000000 0.000000 0.000000 0.000000 0.000000 0.000000 10.000000 
Rope2_Seg04 0.000000 0.000000 0.000000 0.000000 0.000000 0.000000 10.000000 
Rope2_Seg05 0.000000 0.000000 0.000000 0.000000 0.000000 0.000000 10.000000 
Rope2_Seg06 0.000000 0.000000 0.000000 0.000000 0.000000 0.000000 10.000000 
Rope2_Seg07 0.000000 0.000000 0.000000 0.000000 0.000000 0.000000 10.000000 
Rope2_Seg09 0.000000 0.000000 0.000000 0.000000 0.000000 0.000000 10.000000 
R_mid_hand01 0.000000 0.000000 0.000000 0.000000 0.000000 0.000000 10.000000 
R_mid_hand02 0.000000 0.000000 0.000000 0.000000 0.000000 0.000000 10.000000 
R_mid_hand03 0.000000 0.000000 0.000000 0.000000 0.000000 0.000000 10.000000 
spine02 0.000000 0.000000 0.000000 0.000000 0.000000 0.000000 10.000000 
spine03 0.000000 0.000000 0.000000 0.000000 0.000000 0.000000 10.000000 
pelvis 0.000000 0.000000 0.000000 0.000000 0.000000 0.000000 10.000000 
null_rope03_connect 0.000000 0.000000 0.000000 0.000000 0.000000 0.000000 10.000000 
null_rope04_connect 0.000000 0.000000 0.000000 0.000000 0.000000 0.000000 10.000000 
Rope3_Seg01 0.000000 0.000000 0.000000 0.000000 0.000000 0.000000 10.000000 
Rope3_Seg02 0.000000 0.000000 0.000000 0.000000 0.000000 0.000000 10.000000 
Rope3_Seg03 0.000000 0.000000 0.000000 0.000000 0.000000 0.000000 10.000000 
Rope3_Seg04 0.000000 0.000000 0.000000 0.000000 0.000000 0.000000 10.000000 
Rope3_Seg05 0.000000 0.000000 0.000000 0.000000 0.000000 0.000000 10.000000 
Rope3_Seg06 0.000000 0.000000 0.000000 0.000000 0.000000 0.000000 10.000000 
Rope3_Seg07 0.000000 0.000000 0.000000 0.000000 0.000000 0.000000 10.000000 
Rope3_Seg08 0.000000 0.000000 0.000000 0.000000 0.000000 0.000000 10.000000 
Rope3_Seg09 0.000000 0.000000 0.000000 0.000000 0.000000 0.000000 10.000000 
R_rear_hand01 0.000000 0.000000 0.000000 0.000000 0.000000 0.000000 10.000000 
R_rear_hand02 0.000000 0.000000 0.000000 0.000000 0.000000 0.000000 10.000000 
R_rear_hand03 0.000000 0.000000 0.000000 0.000000 0.000000 0.000000 10.000000 
Rope4_Seg01 0.000000 0.000000 0.000000 0.000000 0.000000 0.000000 10.000000 
Rope4_Seg02 0.000000 0.000000 0.000000 0.000000 0.000000 0.000000 10.000000 
Rope4_Seg03 0.000000 0.000000 0.000000 0.000000 0.000000 0.000000 10.000000 
Rope4_Seg04 0.000000 0.000000 0.000000 0.000000 0.000000 0.000000 10.000000 
Rope4_Seg05 0.000000 0.000000 0.000000 0.000000 0.000000 0.000000 10.000000 
Rope4_Seg06 0.000000 0.000000 0.000000 0.000000 0.000000 0.000000 10.000000 
Rope4_Seg07 0.000000 0.000000 0.000000 0.000000 0.000000 0.000000 10.000000 
Rope4_Seg08 0.000000 0.000000 0.000000 0.000000 0.000000 0.000000 10.000000 
Rope4_Seg09 0.000000 0.000000 0.000000 0.000000 0.000000 0.000000 10.000000 
L_rear_hand01 0.000000 0.000000 0.000000 0.000000 0.000000 0.000000 10.000000 
L_rear_hand02 0.000000 0.000000 0.000000 0.000000 0.000000 0.000000 10.000000 
L_rear_hand03 0.000000 0.000000 0.000000 0.000000 0.000000 0.000000 10.000000 
#Beginning of Data. Separated by tabs
#Fr	Tx	Ty	Tz	Rx	Ry	Rz	SF
[MASTER]
34 635.625000 5600.758301 2325.906738 0.001660 0.001660 0.001660 6097.733398
35 649.045898 5687.901367 2311.198486 0.001660 0.001660 0.001660 6173.744629
[root]
34 -262.729279 -170.684784 741.615967 -81.466942 -12.268359 -90.590240 805.080261
35 -287.106506 -115.025185 890.167114 -78.217972 -14.104846 -90.552986 942.368530
[chest]
34 -84.512650 -34.090519 0.000000 1.061041 0.020384 150.114044 91.129311
35 -84.512650 -34.090519 0.000000 4.645569 0.318940 147.945511 91.129311
[L_mid_tent01]
34 27.299545 22.177504 -249.918243 5.079638 42.660927 75.044708 252.381134
35 27.299547 22.177504 -249.918243 8.253137 45.510300 78.975357 252.381134
[R_mid_tent01]
34 23.228794 24.509907 226.238495 161.200195 -26.090456 84.760300 228.744751
35 23.228794 24.509907 226.238495 160.943924 -26.065142 85.331779 228.744751
[spine01]
34 -0.361383 -0.195265 0.000000 0.001845 0.001451 13.654367 0.410763
35 -0.361383 -0.195265 0.000000 0.001845 0.001451 13.654366 0.410763
[Bip01_Neck]
34 165.484543 71.581718 0.000119 176.643677 -1.657967 43.431911 180.302734
35 165.484543 71.581718 0.000119 176.643677 -1.657967 43.431911 180.302734
[L_humerus]
34 -13.983130 -135.272980 -120.471481 171.230225 18.406027 -92.878288 181.680161
35 -13.983130 -135.272980 -120.471481 169.960999 28.330587 -95.236336 181.680161
[R_humerus]
34 -13.983309 -135.273102 125.287651 -175.820236 -14.276324 -87.816025 184.909012
35 -13.983309 -135.273102 125.287651 -174.339645 -24.172939 -90.000748 184.909012
[weapon_bone]
34 235.964890 -300.705902 0.000000 0.000000 -89.951546 -128.212341 382.234833
35 235.964890 -300.705902 0.000000 0.000000 -89.951546 -128.212341 382.234833
[Bip01_Head]
34 213.377686 185.901184 9.381263 6.117372 5.649806 -39.470661 283.155945
35 213.392944 185.859177 9.923167 6.302619 5.445183 -37.742603 283.158356
[eye_left_bone]
34 -24.626970 125.451866 -64.772606 0.000000 -90.000000 -99.840431 143.318359
35 -24.626970 125.451866 -64.772606 0.000000 -90.000000 -99.840431 143.318359
[eye_right_bone]
34 -24.626970 125.451866 64.327362 0.000000 -89.980217 80.156380 143.117676
35 -24.626970 125.451866 64.327362 0.000000 -89.972023 80.156380 143.117676
[L_forearm]
34 322.776093 0.000000 -0.000119 0.000119 -0.002344 -95.807457 322.776093
35 322.776093 0.000000 -0.000119 0.000119 -0.002344 -95.807457 322.776093
[L_front_hand]
34 241.149185 -0.042021 -3.300071 -110.046936 -1.836370 -27.422287 241.171753
35 241.149185 -0.042021 -3.300071 -76.757690 -1.837214 -27.421879 241.171753
[L_weapon_bone]
34 156.183838 0.000000 0.000000 0.000014 0.000007 0.000001 156.183838
35 156.183838 0.000000 0.000000 0.000014 0.000007 0.000001 156.183838
[L_front_hand01_01]
34 86.095154 20.947098 -0.655860 0.405585 -0.442306 -4.620478 88.609184
35 86.095154 20.947098 -0.655860 0.396573 -0.451235 -3.531682 88.609184
[L_front_hand02_01]
34 86.935165 -11.437475 24.513514 116.959450 3.630806 1.495447 91.046425
35 86.935165 -11.437475 24.513514 116.931709 2.659514 0.999017 91.046425
[L_front_hand03_01]
34 86.637497 -14.123976 -20.424902 -118.419884 -4.660544 -0.155075 90.126129
35 86.637497 -14.123976 -20.424902 -118.383858 -3.701149 -0.673386 90.126129
[L_front_hand01_02]
34 71.020905 -0.000179 0.000030 0.001534 0.001777 -8.378910 71.020905
35 71.020905 -0.000179 0.000030 0.001450 0.001846 -13.681103 71.020905
[L_front_hand02_02]
34 71.020927 -0.000119 0.000060 0.001534 0.001777 -8.378910 71.020927
35 71.020927 -0.000119 0.000060 0.001450 0.001846 -13.681103 71.020927
[L_front_hand03_02]
34 71.020905 -0.000060 0.000060 0.001534 0.001777 -8.378910 71.020905
35 71.020905 -0.000060 0.000060 0.001450 0.001846 -13.681103 71.020905
[R_forearm]
34 322.776428 -0.000060 0.000030 0.194935 -0.084246 -67.668488 322.776428
35 322.776428 -0.000060 0.000030 0.193421 -0.087645 -66.623177 322.776428
[R_front_hand]
34 238.847015 -0.006795 2.210259 -57.274845 -10.642326 -26.314154 238.857239
35 238.847015 -0.006795 2.210259 -100.468102 -10.643661 -26.312752 238.857239
[R_weapon_bone]
34 155.664093 0.002503 -0.000030 0.003487 0.001180 -90.988930 155.664078
35 155.664093 0.002503 -0.000030 0.003487 0.001180 -90.988930 155.664078
[R_front_hand01_01]
34 87.624611 14.231146 22.918642 -116.960213 3.496660 -1.324131 91.683487
35 87.624611 14.231146 22.918642 -116.926720 2.169788 -0.645375 91.683487
[R_front_hand02_01]
34 89.356956 14.367283 -19.491137 118.419647 -4.257074 0.609835 92.579636
35 89.356956 14.367283 -19.491137 118.377480 -2.946044 1.321489 92.579636
[R_front_hand03_01]
34 87.286232 -22.307278 -0.143439 -0.387970 -0.231462 4.231984 90.091743
35 87.286232 -22.307278 -0.143439 -0.385047 -0.241429 2.742601 90.091743
[R_front_hand01_02]
34 71.020905 0.000060 0.000119 0.001777 0.001534 8.377299 71.020905
35 71.020905 0.000060 0.000119 0.001865 0.001425 15.210007 71.020905
[R_front_hand02_02]
34 71.020844 -0.000030 -0.000119 0.001777 0.001534 8.377299 71.020836
35 71.020844 -0.000030 -0.000119 0.001865 0.001425 15.210007 71.020836
[R_front_hand03_02]
34 71.020905 0.000000 0.000030 0.001777 0.001534 8.377299 71.020905
35 71.020905 0.000000 0.000030 0.001865 0.001425 15.210007 71.020905
[null_rope01_connect]
34 328.732483 0.000000 -0.000238 -140.263596 -54.483742 168.081604 328.732483
35 328.732483 0.000000 -0.000238 -136.909088 -54.188931 163.525421 328.732483
[Rope1_Seg01]
34 0.000000 0.000000 0.000000 112.015511 -17.284992 159.848251 0.000000
35 0.000000 0.000000 0.000000 112.347237 -2.670945 165.802612 0.000000
[Rope1_Seg02]
34 139.999863 -0.000179 0.000000 3.408623 -8.633107 -19.292751 139.999863
35 139.999863 -0.000179 0.000000 6.491231 -5.520350 -18.660221 139.999863
[Rope1_Seg03]
34 139.999924 0.000060 -0.000060 13.891473 -19.348980 -31.137415 139.999924
35 139.999924 0.000060 -0.000060 23.176939 -16.944687 -32.794376 139.999924
[Rope1_Seg04]
34 139.999924 -0.000060 -0.000119 11.076937 -12.891634 -21.880592 139.999924
35 139.999924 -0.000060 -0.000119 18.659782 -15.193564 -21.932501 139.999924
[Rope1_Seg05]
34 139.999832 0.000119 -0.000060 12.293413 0.914571 -27.807777 139.999832
35 139.999832 0.000119 -0.000060 10.287605 1.913238 -19.696524 139.999832
[Rope1_Seg06]
34 139.999954 0.000119 -0.000060 16.884092 -4.134637 -17.301207 139.999954
35 139.999954 0.000119 -0.000060 11.512075 -2.396106 -11.009755 139.999954
[Rope1_Seg07]
34 139.999985 0.000060 0.000000 10.621104 -4.859025 -7.260144 139.999985
35 139.999985 0.000060 0.000000 8.113507 -3.055808 -5.464474 139.999985
[Rope1_Seg09]
34 121.602913 0.000119 -0.000089 -89.793175 -1.359789 0.847147 121.602913
35 121.602913 0.000119 -0.000089 -89.793175 -1.359789 0.847147 121.602913
[L_mid_hand01]
34 103.859421 1.038730 8.195221 130.544373 -67.584534 -38.866940 104.187431
35 103.859421 1.038730 8.195221 130.544373 -67.584534 -38.866947 104.187431
[L_mid_hand02]
34 105.572853 -4.139662 -10.864139 -168.923172 43.409317 -73.498894 106.211075
35 105.572853 -4.139662 -10.864139 -168.923172 43.409309 -73.498886 106.211075
[L_mid_hand03]
34 104.641464 17.579376 -3.913581 -6.012628 17.808178 74.893669 106.179977
35 104.641464 17.579376 -3.913581 -6.012627 17.808174 74.893669 106.179977
[null_rope02_connect]
34 328.732849 0.000179 -0.000119 -132.943848 52.028336 23.331194 328.732849
35 328.732849 0.000179 -0.000119 -133.302200 49.173100 20.988018 328.732849
[Rope2_Seg01]
34 0.000147 0.000200 0.000000 -39.892082 -2.048147 6.135340 0.000248
35 0.000149 0.000201 0.000000 -47.171120 9.496500 -4.828469 0.000250
[Rope2_Seg02]
34 139.999741 -0.000060 -0.000119 -13.280464 8.800962 16.971060 139.999756
35 139.999741 -0.000060 -0.000119 -20.908619 8.493462 15.268805 139.999756
[Rope2_Seg03]
34 140.000107 0.000030 0.000000 -11.849090 -3.789027 25.183994 140.000107
35 140.000107 0.000030 0.000000 -17.559748 -3.354755 23.656269 140.000107
[Rope2_Seg04]
34 139.999802 0.000000 -0.000060 -5.848149 10.161714 15.301437 139.999802
35 139.999802 0.000000 -0.000060 -8.270800 1.301979 14.791362 139.999802
[Rope2_Seg05]
34 139.999985 -0.000060 0.000119 -15.279305 33.026936 11.191936 139.999985
35 139.999985 -0.000060 0.000119 -11.706745 23.098984 5.954267 139.999985
[Rope2_Seg06]
34 139.999893 -0.000030 -0.000119 -13.236527 10.079307 8.817692 139.999893
35 139.999893 -0.000030 -0.000119 -10.896018 9.907219 5.745257 139.999893
[Rope2_Seg07]
34 139.999893 0.000060 -0.000060 -7.435549 3.460941 5.352103 139.999893
35 139.999893 0.000060 -0.000060 -6.884952 3.781305 4.058239 139.999893
[Rope2_Seg09]
34 121.338966 0.000089 -0.000060 33.793236 -1.359788 -0.847141 121.338966
35 121.338966 0.000089 -0.000060 33.793236 -1.359788 -0.847141 121.338966
[R_mid_hand01]
34 104.680779 11.144459 -10.335981 -16.212067 45.237247 70.462852 105.778534
35 104.680779 11.144459 -10.335981 -16.212063 45.237240 70.462845 105.778534
[R_mid_hand02]
34 104.070427 2.443552 8.231699 49.067383 -67.749779 39.286449 104.424065
35 104.070427 2.443552 8.231699 49.067375 -67.749794 39.286476 104.424065
[R_mid_hand03]
34 106.028137 -11.221827 -5.996406 -177.101105 15.551026 -76.585587 106.788818
35 106.028137 -11.221827 -5.996406 -177.101105 15.551026 -76.585571 106.788818
[spine02]
34 129.756927 0.001550 0.000119 -1.023899 -3.926965 6.770993 129.756927
35 129.756927 0.001550 0.000119 -1.023899 -3.926965 6.770993 129.756927
[spine03]
34 78.613785 0.087327 -4.898814 1.040681 4.146420 4.212376 78.766319
35 78.613785 0.087329 -4.898812 1.040680 4.146420 4.212376 78.766319
[pelvis]
34 169.435242 0.051022 0.000000 0.019518 -0.190233 -10.721436 169.435257
35 169.435242 0.051022 0.000000 0.019518 -0.190233 -10.721435 169.435257
[null_rope03_connect]
34 -1.257226 -2.466202 137.391083 8.309470 -81.875885 80.167885 137.418976
35 -1.257226 -2.466202 137.391083 11.519173 -78.645302 78.810905 137.418976
[null_rope04_connect]
34 -1.259640 -2.480268 -137.844437 8.309470 -81.875885 80.167885 137.872513
35 -1.259640 -2.480268 -137.844437 11.519173 -78.645302 78.810905 137.872513
[Rope3_Seg01]
34 -0.000013 -0.000006 -0.000153 -132.026993 -7.300448 -41.302952 0.000153
35 -0.000013 -0.000004 -0.000153 -134.380997 -10.953711 -48.756794 0.000153
[Rope3_Seg02]
34 139.999924 -0.000119 0.000060 11.663068 -15.404503 -2.158076 139.999924
35 139.999924 -0.000119 0.000060 12.202749 -19.605221 -15.671294 139.999924
[Rope3_Seg03]
34 139.999924 -0.000119 0.000119 7.772334 -9.192592 -3.598407 139.999924
35 139.999924 -0.000119 0.000119 15.708035 -14.255538 -13.135400 139.999924
[Rope3_Seg04]
34 139.999924 0.000119 0.000000 12.168753 -8.418335 3.123076 139.999924
35 139.999924 0.000119 0.000000 43.197094 -12.824325 -1.445694 139.999924
[Rope3_Seg05]
34 139.999924 -0.000238 0.000060 19.464775 -12.291342 23.629698 139.999924
35 139.999924 -0.000238 0.000060 34.634430 -10.520988 25.078066 139.999924
[Rope3_Seg06]
34 139.999893 -0.000119 -0.000060 7.372498 -2.592246 23.362915 139.999893
35 139.999893 -0.000119 -0.000060 7.802846 5.372471 23.152561 139.999893
[Rope3_Seg07]
34 139.999771 0.000060 -0.000119 2.118147 -0.117658 12.330240 139.999771
35 139.999771 0.000060 -0.000119 2.367663 3.490291 11.356035 139.999771
[Rope3_Seg08]
34 139.999985 -0.000060 0.000000 0.878787 0.179539 6.515257 139.999985
35 139.999985 -0.000060 0.000000 1.100721 2.030622 5.836023 139.999985
[Rope3_Seg09]
34 90.185997 -0.000179 -0.000060 89.793228 -1.359877 -0.847183 90.185997
35 90.185997 -0.000179 -0.000060 89.793228 -1.359877 -0.847183 90.185997
[R_rear_hand01]
34 103.366196 -6.073594 -10.757982 -177.714203 24.565966 -73.910950 104.101845
35 103.366196 -6.073594 -10.757982 -177.714203 24.565960 -73.910950 104.101845
[R_rear_hand02]
34 100.509819 12.039542 -7.992327 -12.874827 36.868488 72.167213 101.543350
35 100.509819 12.039542 -7.992327 -12.874829 36.868488 72.167213 101.543350
[R_rear_hand03]
34 101.539970 5.215704 5.435467 71.484581 -71.816628 21.513813 101.819031
35 101.539970 5.215704 5.435467 71.484581 -71.816628 21.513813 101.819031
[Rope4_Seg01]
34 0.000000 0.000047 0.000000 55.950459 -13.697749 -147.067734 0.000047
35 0.000000 0.000048 0.000000 58.906216 -16.334848 -148.262024 0.000048
[Rope4_Seg02]
34 139.999985 0.000060 0.000119 -11.720819 5.154372 -9.944191 139.999985
35 139.999985 0.000060 0.000119 -12.237902 4.918172 -9.930982 139.999985
[Rope4_Seg03]
34 139.999924 0.000000 -0.000238 -16.078817 10.639235 -14.115712 139.999924
35 139.999924 0.000000 -0.000238 -17.787825 11.338643 -14.930124 139.999924
[Rope4_Seg04]
34 139.999985 0.000000 0.000119 -14.941117 12.883038 -15.844497 139.999985
35 139.999985 0.000000 0.000119 -15.662443 16.916960 -15.749477 139.999985
[Rope4_Seg05]
34 139.999802 -0.000060 -0.000119 -5.533624 24.687763 -3.967643 139.999802
35 139.999802 -0.000060 -0.000119 -6.423144 24.467415 -7.121870 139.999802
[Rope4_Seg06]
34 139.999924 0.000000 0.000060 2.443485 29.749300 5.985880 139.999924
35 139.999924 0.000000 0.000060 0.931446 26.719162 -0.687129 139.999924
[Rope4_Seg07]
34 139.999802 0.000000 0.000000 2.778981 13.835136 1.166117 139.999802
35 139.999802 0.000000 0.000000 2.841924 13.227683 -1.272509 139.999802
[Rope4_Seg08]
34 139.999924 0.000000 0.000119 0.469473 6.424063 0.127067 139.999924
35 139.999924 0.000000 0.000119 0.620519 6.242064 -1.004685 139.999924
[Rope4_Seg09]
34 90.185791 0.000060 0.000060 -135.617828 2.228885 0.850567 90.185791
35 90.185791 0.000060 0.000060 -135.617828 2.228885 0.850567 90.185791
[L_rear_hand01]
34 101.696655 -8.392275 -7.654577 -12.874829 -36.868488 107.832764 102.329041
35 101.696655 -8.392275 -7.654577 -12.874829 -36.868488 107.832764 102.329041
[L_rear_hand02]
34 102.726799 -1.568258 5.773216 71.484589 71.816643 158.486160 102.900848
35 102.726799 -1.568258 5.773216 71.484581 71.816628 158.486160 102.900848
[L_rear_hand03]
34 104.552910 9.721220 -10.420293 -177.714203 -24.565966 -106.089035 105.519653
35 104.552910 9.721220 -10.420293 -177.714203 -24.565960 -106.089035 105.519653
